<svg id="Capa_1" enable-background="new 0 0 511.81 511.81" height="512" viewBox="0 0 511.81 511.81" width="512" xmlns="http://www.w3.org/2000/svg"><g><g><g><path d="m232.031 0c-33.024 0-59.893 26.864-59.893 59.885s26.868 59.884 59.893 59.884 59.893-26.863 59.893-59.884-26.868-59.885-59.893-59.885z" fill="#e9b070"/><path d="m291.924 59.885c0-24.538-14.844-45.666-36.019-54.907v109.813c21.175-9.241 36.019-30.368 36.019-54.906z" fill="#da9a5c"/></g><g><path d="m249.244 148.908c-33.024 0-59.893 26.864-59.893 59.885s26.868 59.884 59.893 59.884 59.893-26.863 59.893-59.884-26.869-59.885-59.893-59.885z" fill="#e9b070"/><path d="m309.137 208.793c0-30.768-23.332-56.18-53.231-59.505v119.01c29.899-3.325 53.231-28.737 53.231-59.505z" fill="#da9a5c"/></g><path d="m403.457 141.172c-33.024 0-59.893 26.863-59.893 59.884s26.868 59.885 59.893 59.885 59.894-26.864 59.894-59.885-26.869-59.884-59.894-59.884z" fill="#da9a5c"/><path d="m88.118 67.35c-33.025 0-59.894 26.863-59.894 59.884s26.868 59.885 59.894 59.885c33.024 0 59.893-26.864 59.893-59.885s-26.869-59.884-59.893-59.884z" fill="#e9b070"/></g><path d="m454.368 210.605h-396.926c-20.486 0-37.153 16.666-37.153 37.152v92.631c0 45.616 17.882 88.617 50.353 121.081 32.469 32.463 75.477 50.341 121.1 50.341h128.328c45.623 0 88.631-17.878 121.1-50.341 32.471-32.464 50.353-75.465 50.353-121.081v-92.631c-.002-20.486-16.669-37.152-37.155-37.152z" fill="#9ee2f8"/><path d="m380.24 361.208c10.516-9.968 17.085-24.062 17.085-39.659 0-30.139-24.523-54.659-54.666-54.659-25.929 0-47.699 18.144-53.28 42.398h-66.947c-5.581-24.255-27.352-42.398-53.28-42.398-30.143 0-54.666 24.521-54.666 54.659 0 15.586 6.441 29.685 16.934 39.659-10.491 9.974-16.934 24.074-16.934 39.659 0 30.139 24.523 54.659 54.666 54.659 25.929 0 47.699-18.144 53.28-42.398h66.947c5.581 24.255 27.352 42.398 53.28 42.398 30.143 0 54.666-24.521 54.666-54.659 0-15.598-6.569-29.691-17.085-39.659z" fill="#ffb64c"/><g><g><path d="m454.368 210.605h-198.463v98.684l30 46.074-30 57.764v98.683h64.164c45.623 0 88.631-17.878 121.1-50.341 32.471-32.464 50.353-75.465 50.353-121.081v-92.631c-.001-20.486-16.668-37.152-37.154-37.152z" fill="#8cbcff"/></g><g><path d="m380.24 361.208c10.516-9.968 17.085-24.062 17.085-39.659 0-30.139-24.523-54.659-54.666-54.659-25.929 0-47.699 18.144-53.28 42.398h-33.474v103.84h33.474c5.581 24.255 27.352 42.398 53.28 42.398 30.143 0 54.666-24.521 54.666-54.659 0-15.598-6.569-29.691-17.085-39.659z" fill="#ff9100"/></g></g></g></svg>